<svg xmlns="http://www.w3.org/2000/svg" xmlns:xlink="http://www.w3.org/1999/xlink" width="386.42187" height="359.59157" viewBox="0 0 386.42187 359.59157">
  <defs>
    <style>
      .ad02b672-c5d4-40e1-9001-df7a907b30e7 {
        fill: #131415;
      }

      .ececcb6a-bad7-4692-86b1-b91358638488 {
        fill: #1571b7;
      }

      .b62cee41-bc26-43de-91f2-a40bd4a82032 {
        fill: url(#fb27497a-6173-441d-bf40-a8ceb9afe2e3);
      }

      .b5cdb783-d601-4852-8f2d-f93a358a3e47 {
        fill: url(#a7aef2ea-5b89-437b-bce6-c45ca58c921f);
      }

      .bc4f93be-20e0-4b8c-80d6-1bbaa7ac2e27 {
        fill: #d8d9de;
      }

      .a71feda6-4c55-4084-8a34-fe3d06f525ea {
        fill: url(#e1f0ab3a-af7a-44e9-879a-7b5e042dc9b0);
      }

      .b411a51b-1a75-46e3-95e2-2565eb415f0d {
        fill: #333334;
      }

      .a5cfdca4-0320-4d0f-ba65-5d369bfaaacb {
        fill: #9b9c9e;
      }

      .f3090f87-e592-43e7-b6ba-e47b7385efaa {
        fill: #f3d35e;
      }

      .ba0a78eb-63b3-452a-bc37-c512364e0128 {
        fill: #973b36;
      }

      .fab1f4eb-5162-4073-bbe8-71d01b00072b {
        fill: #fff;
      }

      .ec245c59-77ec-4730-ae02-204ef2e5f854 {
        fill: url(#bbb0c6f0-8822-4f4b-8598-ff964544f23e);
      }

      .e3a21e37-f3d3-4075-9244-fabb00a67f19 {
        fill: #f2e627;
      }

      .afa65a13-94a9-4b95-83a5-ead2afc0c2aa {
        fill: #c2bc25;
      }

      .ff2c66e0-058b-4c23-98f7-562502410780 {
        fill: #5483b2;
      }

      .a1269353-01e0-4cc1-b559-71fb6a554f3f {
        fill: url(#e213d125-58c4-479e-a370-7e166bc16327);
      }

      .a0c2093e-9b7f-4994-a530-39d8b2188946 {
        fill: url(#b63a9c1f-8f39-4d54-9da5-a9e622c51e34);
      }

      .b25860c0-2cb9-4c97-99d5-40e219a23e89 {
        fill: #cf6a4c;
      }
    </style>
    <linearGradient id="fb27497a-6173-441d-bf40-a8ceb9afe2e3" data-name="Adsız degrade 8" x1="1.24646" y1="148.30137" x2="150.33709" y2="148.30137" gradientTransform="matrix(1, 0, 0, -1, 44, 336.66216)" gradientUnits="userSpaceOnUse">
      <stop offset="0" stop-color="#ffdf00"/>
      <stop offset="0.3091" stop-color="#ffdf00"/>
      <stop offset="1" stop-color="#ffdf00"/>
    </linearGradient>
    <linearGradient id="a7aef2ea-5b89-437b-bce6-c45ca58c921f" x1="36.00948" y1="200.78262" x2="172.02965" y2="200.78262" xlink:href="#fb27497a-6173-441d-bf40-a8ceb9afe2e3"/>
    <linearGradient id="e1f0ab3a-af7a-44e9-879a-7b5e042dc9b0" x1="52.83207" y1="300.42527" x2="189.8073" y2="300.42527" xlink:href="#fb27497a-6173-441d-bf40-a8ceb9afe2e3"/>
    <linearGradient id="bbb0c6f0-8822-4f4b-8598-ff964544f23e" x1="118.40335" y1="120.91255" x2="152.04854" y2="120.91255" xlink:href="#fb27497a-6173-441d-bf40-a8ceb9afe2e3"/>
    <linearGradient id="e213d125-58c4-479e-a370-7e166bc16327" x1="128.76964" y1="237.52201" x2="195.70134" y2="237.52201" xlink:href="#fb27497a-6173-441d-bf40-a8ceb9afe2e3"/>
    <linearGradient id="b63a9c1f-8f39-4d54-9da5-a9e622c51e34" x1="132.58591" y1="273.624" x2="198.89395" y2="273.624" xlink:href="#fb27497a-6173-441d-bf40-a8ceb9afe2e3"/>
  </defs>
  <g id="fefbb274-d9b1-47ba-a62a-f8b99d891000" data-name="katman 2">
    <g id="e71d9f8e-3056-469f-b0f2-af83bc711f38" data-name="katman 1">
      <g>
        <path class="ad02b672-c5d4-40e1-9001-df7a907b30e7" d="M22.84948,272.792a5.61263,5.61263,0,0,0,1.47351-1.22793c2.27167-2.70144,4.48194-5.40287,6.7536-8.04292a1.22815,1.22815,0,0,0,.24559-1.59631c-6.87639-14.24394-10.25319-29.04046-8.10432-44.94211a56.76991,56.76991,0,0,1,11.91089-27.81253,14.83089,14.83089,0,0,1,8.28851-5.40287,3.39183,3.39183,0,0,0,1.84189-1.35073c2.14887-3.3768,4.175-6.815,6.201-10.25319,4.54332-7.73594,8.10431-16.14723,14.12115-22.96223a8.33851,8.33851,0,0,0,.921-1.71909c-1.22793.614-2.08748,1.04375-2.947,1.53491-.92094.49116-2.02608,1.04375-2.76283.1228a3.63027,3.63027,0,0,1-.55257-2.76283c.79815-3.3768,1.78049-6.6922,2.76283-10.00761a50.4512,50.4512,0,0,1,2.02608-5.83265,4.80385,4.80385,0,0,1,3.74518-2.88563,16.69674,16.69674,0,0,1,3.868-.49117c1.35071.0614,1.84189-.49117,2.21027-1.6577,1.84189-5.894,3.868-11.7267,5.64846-17.55935,1.90329-6.13964,4.05216-12.27927,4.72751-18.72589.24559-2.39445,1.28933-4.9117-.36838-7.24476-.12279-.1228-.0614-.36839-.0614-.55257-.0614-5.52567-.12279-11.05134-.12279-16.63841A6.31348,6.31348,0,0,1,88.11378,59.01a3.38656,3.38656,0,0,0,1.41212-1.6577c3.13121-7.24477,6.75359-14.244,12.40206-19.831,3.62238-3.561,7.61314-6.75359,11.54251-10.0076A81.47692,81.47692,0,0,1,131.3982,15.90973a84.12332,84.12332,0,0,1,35.48708-7.49035H168.85V7.86681c-2.33305-.36838-4.66613-.67536-6.93778-1.04374A13.69744,13.69744,0,0,0,153.2553,8.051a25.958,25.958,0,0,1-5.40288,1.47351,2.58617,2.58617,0,0,1-1.10513-.24559,10.19584,10.19584,0,0,1,.85954-.79815c.79816-.307,1.6577-.49117,2.45586-.79815.98234-.36838,1.96469-.79815,2.947-1.22793a1.44483,1.44483,0,0,1-.1228-.49117,72.99766,72.99766,0,0,0-24.68132,5.15729,2.06519,2.06519,0,0,1,.92094-1.16653c2.88563-1.16653,5.77126-2.51725,8.71828-3.37679,5.0959-1.47352,10.1918-2.88563,15.59467-2.57865a33.71877,33.71877,0,0,0,4.29774.307c3.00842-.24559,5.95545-.67536,8.47269-.98234a50.67384,50.67384,0,0,0-14.67372-.36838c-3.4382.307-6.815,1.10514-10.25319,1.6577-.42977.0614-.92094-.42977-1.35072-.614.307-.307.614-.85955.98235-.98234A54.30534,54.30534,0,0,1,158.59676.00808c10.98994.24559,21.18173,2.947,30.32978,9.33224a2.51859,2.51859,0,0,0,1.35073.42978c4.66612.36837,9.33225.73675,13.937,1.16653a35.32024,35.32024,0,0,1,5.09589.85955c1.65771.36838,3.19262,1.10513,4.85031,1.41211a88.04816,88.04816,0,0,1,22.778,7.61315c8.22711,4.05215,13.26161,10.92854,17.86634,18.3575.18418.24559,0,.73676-.0614,1.10514-.307-.12279-.73677-.18419-.92095-.42977-.67536-.92095-1.35072-1.90329-1.96469-2.82423-2.51725-3.80658-5.15729-7.49036-8.77967-10.31459-1.96469-1.5349-4.11356-2.76283-6.201-4.17495-.0614.12279-.18418.24559-.24558.36838a33.46407,33.46407,0,0,1,8.1657,7.67454,9.47112,9.47112,0,0,0,1.53491,1.90329c3.254,2.57864,5.64847,5.95544,7.98153,9.27084.36838.49117.307,1.28932.49116,1.90329-.1228.06139-.24558.06139-.36838.12279.55256.85955,1.10512,1.6577,1.59631,2.57864.1228.18419,0,.614-.18419.85955-.0614.12279-.614.0614-.73676-.06139a38.76365,38.76365,0,0,1-3.3768-3.68378c-.85954-1.16654-1.35072-2.57865-2.27167-3.68378-2.27167-2.70144-4.35914-5.70987-7.18338-7.85874-3.4996-2.64-7.55174-4.54333-11.41972-6.815a13.00766,13.00766,0,0,0-1.90329-.85955c-.1228.12279-.18418.24559-.307.36838.24558.18419.55256.307.79814.49117,2.82424,2.45585,5.83266,4.78892,8.53409,7.36756,2.21027,2.08748,4.11356,4.48194,6.13963,6.6922a28.13413,28.13413,0,0,0,2.57866,2.82423c4.54332,3.68378,8.90247,7.55175,12.27926,12.34067a5.79014,5.79014,0,0,0,.614.614c.24558-.307.42978-.49117.614-.73676,4.66613-5.46427,9.57783-10.62156,15.96305-14.24394,11.17414-6.32383,22.90082-8.84108,35.54849-5.95545a10.57228,10.57228,0,0,0,3.68378.12279c3.68378-.55256,7.36756-.79815,10.92854.67536,4.78891,2.02608,9.57781,4.11356,13.20021,8.10432a6.70109,6.70109,0,0,0,1.04375.79815c2.947,1.96468,5.1573,1.53491,6.815-1.5963a19.31243,19.31243,0,0,0,1.59629-5.15729c.42978-2.08748,1.90327-3.00843,3.74516-3.561a4.17926,4.17926,0,0,1,4.54334,1.41211c.36836.36838.67535.92095,1.10513,1.04374,2.82421,1.10514,4.11356,3.3154,4.72752,6.07824.42978,1.96468.614,4.11355,1.53491,5.83265,1.47353,2.70144.73676,4.78892-1.04374,6.815-.49117.55257-.921,1.10514-1.41211,1.6577-3.4996,4.05216-3.561,4.05216-1.41211,8.96386a8.06613,8.06613,0,0,0,2.51723,3.62238c3.3768,2.51726,6.93778,4.78892,10.43738,7.122,4.29774,2.88563,7.98152,6.38522,9.70061,11.35832a59.67413,59.67413,0,0,1,2.70146,11.7881c.98232,8.84107-.67535,17.498-2.76284,26.032a86.192,86.192,0,0,1-12.95461,27.87393c-6.201,9.148-13.07741,17.62076-22.40966,23.88317-3.06982,2.08747-6.26243,3.74518-10.19178,3.06982-2.21025-.36838-3.3768-1.71909-3.06981-3.92936a25.50161,25.50161,0,0,1,1.22792-4.72753c.2456-.92094.67535-1.78049,1.16655-3.06981-.921.614-1.41211.98234-1.90327,1.35072a8.11558,8.11558,0,0,1-6.01684,1.47351c-2.27167-.36838-3.561-2.02607-3.13119-4.17494.1228-.79815.42978-1.59631.614-2.39446.2456-.98234.36836-2.02607.55258-3.00841-3.1312,3.06981-6.32381,5.09589-10.80574,2.947a9.97935,9.97935,0,0,1,.2456,1.16653c2.02607,6.6922,3.6224,13.44579,2.45585,20.445a10.903,10.903,0,0,0,1.84189,8.47269,21.73018,21.73018,0,0,1,3.4996,13.87557c-.36836,4.66613-2.39447,8.34991-7.06058,10.0076a62.38153,62.38153,0,0,1-6.69221,1.59631c-.49116.1228-1.10513.307-1.28931.614-1.35073,2.57866-2.64,5.21869-3.99076,7.98152.36838.24559.98234.55257,1.53491.921,5.95545,3.868,11.84948,7.73594,16.884,12.83183a86.92574,86.92574,0,0,1,19.15566,31.12795c3.868,10.56018,7.30618,21.18173,9.14807,32.29446a66.53415,66.53415,0,0,1-1.47352,29.71584c-1.04375,3.68378-3.43818,5.0345-7.122,4.11356-.36837-.06138-.73677-.18418-1.10513-.2456-.79815,1.65771-1.53491,3.19262-2.21025,4.7889-1.47353,3.3768-4.48193,4.11357-7.61316,4.23637-2.64.06138-3.561-2.27167-4.66611-4.175-.1228-.2456-.2456-.49116-.36836-.79814-1.22793-2.64-2.45586-5.34149-3.6224-8.04291-.98233-2.39447-1.90327-4.7889-2.82422-7.24476-.42978-1.16654-.73676-2.33305-1.16654-3.74516-.55259,2.02607-1.04375,3.80658-1.53491,5.587-1.96469,6.6308-4.42055,13.016-9.14807,18.2961a4.07279,4.07279,0,0,1-3.3768,1.59629c-3.868-.06138-5.58707-1.84189-5.83265-5.64847-.18418-2.45585-.55257-4.9117-.79815-7.36756h-.36838c-.42978,1.47353-.92094,2.947-1.28933,4.48193a40.82036,40.82036,0,0,1-8.04292,15.84025c-1.53491,1.84189-3.4382,2.947-5.95545,2.21025a5.42378,5.42378,0,0,0-1.71909-.1228c-3.92936-.06138-3.92936-.06138-4.54333-3.99076v-.1228c-.67536-3.561-1.35072-7.18338-2.08747-10.74436-1.84189-8.90247-2.21027-17.92774-2.64-27.01439-.0614-1.16654-.1228-2.33305-.18418-3.43818a.85879.85879,0,0,0-.42979.55258c-.92094,4.66611-1.6577,9.39363-2.76283,13.99836-.67536,2.70145-2.21027,5.15731-2.76284,7.85872a52.26894,52.26894,0,0,1-4.05216,11.23552c-1.47351,3.06982-3.13121,5.83266-7.122,6.38524-4.35914.55258-6.38521-.55258-7.30616-4.85033-.18418-.85956-.36838-1.78051-.49116-2.64-.98234,2.45585-1.71909,4.9117-2.45585,7.30618a5.16407,5.16407,0,0,1-3.99076,3.80658,4.75932,4.75932,0,0,1-5.15729-1.78051,10.99537,10.99537,0,0,1-1.65771-2.82422c-1.16653-3.1312-2.39445-6.32381-3.3154-9.51643-1.04374-3.4996-1.78049-7.122-2.64-10.74436-.85955,1.90327-1.65771,3.868-2.51726,5.77127-.67536,1.41211-1.41211,2.76284-3.19261,3.06982a1.0924,1.0924,0,0,0-.67537.49116,25.95255,25.95255,0,0,0-2.70143,10.2532c-.1228,2.14887-1.16653,3.4996-3.3154,3.43818-2.39445-.06138-4.29774-.55258-5.70985-3.00844-2.27167-4.05214-4.97311-7.92014-7.49036-11.84948-.18418-.2456-.36838-.42979-.55257-.67535a7.15553,7.15553,0,0,0,.307,2.33306,4.43743,4.43743,0,0,1-1.35073,4.72752,9.95748,9.95748,0,0,1-6.07823,2.33305,3.21579,3.21579,0,0,1-2.21028-.73676c-1.78049-1.47353-3.4382-3.06982-5.09588-4.66611-3.254-3.19261-6.13964-6.69221-6.99918-11.35832a4.27536,4.27536,0,0,0-.67537-1.41211c-4.05216-6.38523-7.61314-13.07741-9.63923-20.445-.24558-.79814-.49116-1.59629-.79814-2.45585-.55257.2456-.98235.42978-1.35073.614-11.91089,5.46429-24.31295,8.90247-37.57456,8.10433-2.14887-.1228-3.99076,0-5.46427,1.90327,0,.06138,0,.1228.0614.1228a4.68713,4.68713,0,0,0,.67537.49116c3.62238,2.27167,6.07823,5.21869,5.46427,9.82341v.55259a3.913,3.913,0,0,1-2.08747,4.23636,10.32477,10.32477,0,0,1-4.175,1.47352,35.22418,35.22418,0,0,1-22.65524-5.70985,8.515,8.515,0,0,1-3.92936-5.83265c-.49117-2.947-.98235-5.894-.0614-8.84109a2.291,2.291,0,0,0-.0614-1.10512c-.24558-1.04375-.614-2.02607-.79816-3.06982a2.295,2.295,0,0,0-1.65769-2.02607c-6.815-3.00844-13.75278-5.83265-20.3222-9.27083-5.95544-3.06982-11.6039-6.8764-17.37516-10.31458a2.81676,2.81676,0,0,0-1.78049-.49116,93.89022,93.89022,0,0,1-17.92774,3.68378,3.24291,3.24291,0,0,0-1.47351.67536c-2.947,2.76284-5.70986,5.70987-8.77967,8.34991-4.11356,3.4996-8.4727,6.75359-14.12116,7.30618-4.66612.42978-8.96387-.1228-11.7881-4.35913-2.947-4.48192-3.3768-9.20945-.614-13.937C7.00923,282.554,14.49958,277.15112,22.84948,272.792ZM259.53234,126.7301c-.1228-2.947-.307-5.95544-.49116-9.33224-2.45585,3.254-4.66612,6.201-7.06058,9.33224ZM240.86786,27.32943l-6.99918-4.9731c-.1228.12279-.18418.24559-.307.36838l6.99918,4.9731C240.68368,27.575,240.74508,27.45223,240.86786,27.32943ZM233.93008,24.935a1.8657,1.8657,0,0,1,.307-.42978c-3.254-1.78049-6.44662-3.62238-9.70062-5.40287l-.18418.36837C226.86951,22.35633,230.67607,23.15449,233.93008,24.935Zm-9.88481-7.06058c1.22793.307,2.51725.614,3.74518.92094a.77864.77864,0,0,1,.0614-.36837c-2.39445-.67536-4.85031-1.41212-7.24476-2.08748C221.34383,17.813,222.81734,17.56742,224.04527,17.8744Zm-5.95545-.85955c.0614-.24559.18418-.49117.24558-.67536-1.47351-.49117-2.947-.92094-4.35914-1.41211-.0614.18418-.1228.42977-.18419.614C215.2042,16.03251,216.67771,16.52368,218.08982,17.01485Zm-10.0076-4.11355c.0614-.18419.0614-.307.1228-.49117-1.41211-.24559-2.76283-.49118-4.11356-.79816,0,.18419-.0614.36838-.0614.55257C205.31939,12.41013,206.7315,12.65571,208.08222,12.9013Zm-23.392-4.05216c-3.4996-1.35072-6.6922-2.64-9.88482-3.868l-.18418.36838C177.75244,6.82306,180.08549,10.19986,184.69022,8.84914Zm-8.28851.06139c.0614-.18418.1228-.307.18418-.49117a13.70471,13.70471,0,0,0-8.2271-2.14887C171.06024,7.13,173.70028,7.98959,176.40171,8.91053Z"/>
        <path class="ececcb6a-bad7-4692-86b1-b91358638488" d="M80.74623,237.05932c-8.84107-5.21869-17.12958-11.05134-24.19016-18.4803-6.99918-7.36756-13.56859-14.9807-16.76119-25.1725a46.801,46.801,0,0,0-8.59549,16.14723c-2.14887,7.67454-3.3154,15.59467-2.08748,23.57619,1.59631,10.80576,4.11356,21.36592,10.62157,30.514,5.52567,7.79734,12.58624,14.05975,20.38358,19.46264a174.6488,174.6488,0,0,0,17.00678,10.62156c6.13963,3.31542,12.58625,5.95545,18.97146,8.84109a91.21691,91.21691,0,0,0,21.7957,6.99919c10.1304,1.78051,20.38358,2.64,30.57538.18419,6.508-1.59629,12.83183-3.68378,19.27844-5.58706a2.92932,2.92932,0,0,0,.98235-.49116c-.614-2.14887-1.22793-4.23636-1.71909-6.38523a50.61106,50.61106,0,0,1-.55256-19.21705c1.71909-10.069,4.35914-19.831,10.13039-28.48789,6.815-10.31458,15.22628-18.91007,27.19857-23.20781,1.96469-.67536,4.05216-1.10513,6.26243-1.65771-3.4996-4.35914-4.66612-9.39363-4.23634-14.9807a16.218,16.218,0,0,1-3.4382,2.33305c-3.06982,1.10513-5.28009,3.4382-7.85872,5.15729a78.82042,78.82042,0,0,1-9.762,5.83265c-5.15728,2.45586-10.56017,1.96469-15.71746-.1228a71.09134,71.09134,0,0,1-9.455-4.66612,12.80692,12.80692,0,0,0-6.508-1.78049A59.51147,59.51147,0,0,1,117.584,204.82626a96.5078,96.5078,0,0,1-7.55175-6.69219c-.42977-.42978-.79816-.98235-1.35072-1.65771a37.92759,37.92759,0,0,1-1.78049,4.7889c-7.06058,13.5072-13.63,27.32137-23.392,39.29366a85.73371,85.73371,0,0,1-8.90247,9.39363c-6.07823,5.52567-13.50719,6.56942-21.36592,5.28009-4.66612-.73676-8.4727-3.3154-11.97229-6.32382-.18419-.18418-.42977-.307-.49117-.55256a21.06245,21.06245,0,0,1-.36838-2.08747,6.50091,6.50091,0,0,1,1.90329.307c2.08748,1.10513,3.99076,2.51725,6.07824,3.561a19.70525,19.70525,0,0,0,20.56777-1.10513A44.44718,44.44718,0,0,0,80.74623,237.05932Zm55.1339,49.11707a36.75969,36.75969,0,0,1-4.54332-.614c-6.38522-1.4121-10.92855-5.64847-15.2263-10.19179-2.947-3.13122-3.3768-6.7536-2.14887-10.74436a45.74372,45.74372,0,0,1,7.55175-14.18256c4.54333-6.07823,9.08666-12.09508,13.63-18.11191,1.6577-2.21028,3.37679-4.48193,5.09589-6.6308,1.10514-1.41211,1.6577-1.47351,2.82424-.1228a43.26861,43.26861,0,0,1,3.80657,4.48192c3.3768,5.28009,8.04291,9.33225,12.83184,13.13881a15.18946,15.18946,0,0,0,8.90247,3.3768,5.82452,5.82452,0,0,1,2.27167.73677,1.49038,1.49038,0,0,1,.55256,1.28932,17.44853,17.44853,0,0,1-1.65771,3.80658c-6.13963,10.1304-13.50719,19.27845-21.30452,28.24232A15.30952,15.30952,0,0,1,135.88013,286.17639Z"/>
        <path class="b62cee41-bc26-43de-91f2-a40bd4a82032" d="M101.06841,155.70918c-2.14887-3.13122-3.99076-6.44662-6.38521-9.20945-4.72752-5.34149-10.98994-5.83265-17.43656-4.29775-2.57864.614-4.9731,2.14888-7.429,3.3154a1.14382,1.14382,0,0,0-.55256.73677c-.49118,1.78049-.614,3.68378-1.41212,5.28008-3.49959,7.30616-6.93779,14.61232-10.80575,21.7343-3.31541,6.13964-7.122,12.09509-10.86716,18.05052a4.61146,4.61146,0,0,0-.55257,4.60473A58.70975,58.70975,0,0,0,53.85463,209.124a110.33586,110.33586,0,0,0,25.84785,24.55853c.73676.49117,1.53491.98235,2.57865,1.59631,2.27166-3.62238,4.66612-7.06058,6.6922-10.74436,4.72751-8.84107,9.27085-17.74354,13.937-26.5846.307-.614.55256-1.22793.85955-1.84189,1.35071-3.06982,1.41211-3.19262-1.10514-5.28009-3.3768-2.88564-6.7536-5.77125-10.31459-8.34991-4.42053-3.254-9.51643-4.48192-14.91931-4.66612a2.94689,2.94689,0,0,1-.73675,0,14.89282,14.89282,0,0,1-1.22793-.85955c.42977-.307.85955-.92094,1.22793-.85954a95.21194,95.21194,0,0,1,10.19179.92094c6.63081,1.16653,12.21787,4.72753,17.25238,8.96387,3.99076,3.3768,7.79733,6.99918,11.48111,10.74436,6.44662,6.38521,14.18256,10.31458,22.778,12.83183a62.17693,62.17693,0,0,0,25.60228,1.78049c4.54333-.55256,9.08665-.85954,13.63-1.47351A60.85531,60.85531,0,0,0,193.3471,205.256a1.3228,1.3228,0,0,0,.98235-1.53491,23.51067,23.51067,0,0,0-5.52567-12.15647,1.45151,1.45151,0,0,0-1.22793-.307,94.65028,94.65028,0,0,1-22.28686,3.80658,122.11307,122.11307,0,0,1-13.38439.307c-10.80576-.55256-20.752-3.254-29.40884-10.376A97.00594,97.00594,0,0,1,107.39225,169.155c-2.947-3.868-5.83265-7.79734-8.65688-11.72671-.307-.42978-.18419-1.10512-.24558-1.6577C99.16513,155.70918,99.90188,155.70918,101.06841,155.70918Z"/>
        <path class="b5cdb783-d601-4852-8f2d-f93a358a3e47" d="M198.32021,183.95149c.24558-1.10513-.36838-1.10513-1.16653-1.10513-5.89405-.307-11.84948-.24558-17.68213-1.04374-13.016-1.90329-24.55854-7.18338-34.075-16.577-5.15729-5.03451-10.31459-10.1304-13.63-16.577-3.92937-7.61314-7.06058-15.53328-6.93779-24.31295a66.617,66.617,0,0,1,.98234-7.736,1.459,1.459,0,0,1,.79816-.98234,1.42589,1.42589,0,0,1,1.16652.55256c4.85031,8.4113,12.709,13.81418,19.70822,20.0766A66.95475,66.95475,0,0,0,168.543,148.83278c5.34149,2.02607,10.683,4.11356,16.08584,5.894,5.15729,1.65771,10.62156,1.78049,16.02445,1.59631a12.97949,12.97949,0,0,0,3.68378-.92094c.307-.1228.49116-.67537.614-1.04375a18.54635,18.54635,0,0,1,6.201-8.90247,52.85325,52.85325,0,0,1,4.85031-2.82423h0c-3.3768-.18418-6.815-.79815-10.1918-.55257a54.32594,54.32594,0,0,1-12.64765-.42978,96.51684,96.51684,0,0,1-25.47948-7.122A45.53286,45.53286,0,0,1,148.098,117.27505a92.03442,92.03442,0,0,1-6.99918-12.77044,37.9305,37.9305,0,0,1-3.561-15.65607c0-.12279-.0614-.24558,0-.12279a56.58184,56.58184,0,0,1-5.46427-1.96468,3.59114,3.59114,0,0,1-1.78049-1.78049,1.95775,1.95775,0,0,0-1.6577-1.4735c-10.1304-2.27167-20.32219-3.3768-30.63677-1.10514a34.91735,34.91735,0,0,1-4.9731.79815c-.921.0614-1.22793.42978-1.28933,1.28933-.92095,14.12116-5.894,27.07578-10.80576,40.09181-.24558.55256-.49117,1.10513-.921,1.96468,1.84189-.12279,3.561-.18419,5.21869-.36838,4.175-.49118,8.34991-.614,12.46346.73675a37.65238,37.65238,0,0,1,18.29611,13.07741c6.01684,7.736,9.39364,16.69981,11.78809,26.15485a6.75882,6.75882,0,0,0,1.04374,1.96469c1.47351,2.14887,3.13122,4.17494,4.54333,6.32381,2.88562,4.35914,5.58707,8.71829,8.47269,13.07741a3.84314,3.84314,0,0,0,2.02608,1.35073c9.63923,2.39445,19.40125,1.78049,29.16326,1.28933,3.99076-.18419,7.92012-.79815,11.91089-1.22793a1.8845,1.8845,0,0,0,1.90329-1.53491c.55256-1.96469,2.333-2.947,4.29774-3.19262,2.02607-.24558,4.11356-.24558,6.201-.307A5.6159,5.6159,0,0,0,198.32021,183.95149Z"/>
        <path class="bc4f93be-20e0-4b8c-80d6-1bbaa7ac2e27" d="M156.5093,80.74425c-.24558,12.89323,3.92936,24.68132,10.98994,35.60987,1.90329,2.88563,4.60473,5.0959,7.24476,7.36756,5.52567,4.78892,11.97229,7.429,18.78728,9.455a67.36034,67.36034,0,0,0,19.46265,2.947c7.67454,0,15.1649-1.22793,21.61152-5.64846a65.168,65.168,0,0,0,9.762-8.10431,56.326,56.326,0,0,0,11.6653-17.25238,59.69923,59.69923,0,0,0,4.29775-20.0766c.73676-11.91088-4.05216-21.8571-11.05134-30.94375A49.69031,49.69031,0,0,0,225.2118,37.15285a52.41611,52.41611,0,0,0-14.42814-2.57864C204.951,34.39,199.057,34.45142,193.4085,35.98633c-11.11274,3.00842-20.81335,8.2885-27.32137,18.2961a103.46345,103.46345,0,0,0-6.56941,10.49878A32.71726,32.71726,0,0,0,156.5093,80.74425ZM168.85,85.96294c-.1228,0-.24558-.0614-.36838-.0614.67536-3.62238,1.10512-7.30616,1.96469-10.86715,2.51725-10.25319,7.55174-18.72588,16.45421-25.1111,9.02527-6.508,18.72588-8.3499,29.22466-6.38522a44.31907,44.31907,0,0,1,20.81335,10.069c7.24476,6.201,13.75278,13.016,16.27,22.59385,1.65771,6.32382,2.88563,12.64764,1.10513,19.21705-1.10513,4.23634-1.53491,8.65689-4.05217,12.40206-1.4121,2.08747-3.00841,3.99076-4.54332,5.95544-4.05216,5.21869-8.71829,9.762-14.9193,12.46346A39.25784,39.25784,0,0,1,206.9157,128.572a40.4969,40.4969,0,0,1-16.14723-6.99918,72.92685,72.92685,0,0,1-11.41972-9.88481C172.77933,104.259,168.78857,95.97053,168.85,85.96294Z"/>
        <path class="a71feda6-4c55-4084-8a34-fe3d06f525ea" d="M96.83207,56.00152c5.21869,0,10.19179-.24558,15.16489.0614,6.93779.36838,13.81418,1.16653,20.69056,1.78049.42978.0614.85955.0614,1.28933.1228,1.47351.24558,2.64.12279,3.3768-1.53491a2.82675,2.82675,0,0,1,2.08747-1.22793,20.67758,20.67758,0,0,1,5.15729.0614,2.43057,2.43057,0,0,0,3.00841-1.47352c2.82424-5.34148,6.26243-10.19179,11.60392-13.323,3.4382-2.02608,6.93778-3.99076,10.49877-5.70986,4.42055-2.14887,9.27085-2.76284,14.05976-3.74518,3.561-.67535,7.18338-1.47351,10.80576-1.90328,3.06982-.42977,6.201-.49117,9.33225-.614a64.98654,64.98654,0,0,1,25.1725,3.43819c1.47351.49117,2.88563,1.10513,4.29774,1.6577.0614,0,.0614,0,.42978-.12279-2.02607-1.47352-3.92936-2.76284-5.77125-4.11356a75.74641,75.74641,0,0,0-28.42649-12.27926,88.459,88.459,0,0,0-12.77043-1.53491q-9.57783-.73676-19.15567-1.10513a80.653,80.653,0,0,0-25.60227,3.80657c-9.88481,2.947-18.11192,8.65688-26.032,14.85791-5.95544,4.66612-11.54251,9.63922-15.59466,16.08584C99.10373,51.3968,97.99859,53.79125,96.83207,56.00152Z"/>
        <path class="b411a51b-1a75-46e3-95e2-2565eb415f0d" d="M202.311,192.1172a7.42578,7.42578,0,0,1-.98234-.98235c-.73677-1.22793-1.28933-2.57865-2.02608-3.80658-.18418-.307-.67536-.79814-.98234-.73676-2.27167.18418-4.48193.42978-6.7536.79814a8.66565,8.66565,0,0,0-2.02607.67537c6.8764,5.83265,10.1918,12.64764,7.79734,22.04128a29.90463,29.90463,0,0,0,4.23635-2.27168,31.19311,31.19311,0,0,0,8.71828-10.069,21.26191,21.26191,0,0,1,6.815-7.92012,27.03957,27.03957,0,0,0,7.36756-8.22711c1.65771-2.76283,3.62238-5.40287,5.52567-8.2271a10.74305,10.74305,0,0,1-2.08747-.921c-.36838-.18418-.79815-.79814-.67536-1.04374a1.46532,1.46532,0,0,1,1.04374-.85955,18.87,18.87,0,0,1,3.254.42978c2.70143.42978,5.28009.307,6.93778-2.27167,1.65771-2.45585,1.28932-4.97311-.18418-7.49036-2.76284-4.54333-7.85873-4.91171-12.15647-2.45585-2.08747,1.16652-3.74518,3.06981-5.64847,4.66612a37.71412,37.71412,0,0,1-3.99076,3.00842c-.42978.24558-1.53491.18418-1.71909-.1228-.55257-.79815.36838-.98235.85954-1.47351a11.66653,11.66653,0,0,0,2.51726-2.70144,18.39,18.39,0,0,1,8.4113-7.61314,2.9917,2.9917,0,0,0,1.41211-1.4735c1.65771-4.05217.42978-7.49037-4.48193-7.61315-7.98152-.18418-12.95463,4.11357-16.08584,10.98994-.921,2.02607-1.59631,4.17495-2.45586,6.44662-1.10512-1.22793-.73676-2.88564-.85954-4.29774l-.36838-.18419a18.85164,18.85164,0,0,0-1.78049,2.08748,15.85361,15.85361,0,0,0-2.08747,9.57783c.307,5.83265.614,11.6653,1.04374,17.43655a17.08694,17.08694,0,0,0,1.28933,3.62238c.1228.307.24558.55257.36838.79815C202.49515,191.933,202.37237,192.0558,202.311,192.1172Z"/>
        <path class="b411a51b-1a75-46e3-95e2-2565eb415f0d" d="M242.09579,204.76484a7.24548,7.24548,0,0,1,1.47351-1.04374,3.09613,3.09613,0,0,1,1.28932.0614c-.0614.36838,0,.85954-.24558,1.16653-1.04374,1.4735-2.14887,2.82423-3.19261,4.29774-1.28933,1.84189-1.10513,3.62238.24558,5.46427,2.21027,3.13122,5.15728,4.17494,8.96387,3.3154a28.07046,28.07046,0,0,1,5.09588-.307c3.80658-.1228,7.61315-.18419,11.35833-.36839,2.08747-.1228,4.11356-.55256,6.13963-.79814a18.66439,18.66439,0,0,1,10.43738,2.14887c1.04374.49116,2.08747.921,3.43819,1.59631,1.16653-8.34991.98235-16.45421,1.35073-24.92692a35.15487,35.15487,0,0,1-3.68378,1.65771c-4.60472,1.47351-9.762,1.28933-12.77043-2.14887a15.78778,15.78778,0,0,0-13.016-5.64847,87.46313,87.46313,0,0,0-11.35832.67536,16.94066,16.94066,0,0,0-6.26244,2.57866,5.04364,5.04364,0,0,0-1.6577,3.19261C239.27155,198.93219,240.3153,201.87921,242.09579,204.76484Z"/>
        <path class="ececcb6a-bad7-4692-86b1-b91358638488" d="M128.574,183.27613c-2.21027-9.70062-3.99076-19.217-8.16571-27.99673-4.85031-10.2532-12.03369-17.98913-22.83944-22.04128a25.31964,25.31964,0,0,0-9.33224-1.35072c-5.95544.12279-11.91088.307-17.86633.36838-1.04374,0-1.53491.36838-1.7191,1.28933-.42977,2.08747-.79816,4.23634-1.28932,6.38522-.36838,1.65771-.79816,3.254-1.28933,5.21869,1.35072-.67536,2.64-1.22793,3.74518-1.90329,4.66613-3.00842,9.88481-3.868,15.34908-3.62238,6.32383.307,11.05134,3.3768,14.36674,8.65689,2.45586,3.868,4.72752,7.85872,5.70986,12.40206a3.04675,3.04675,0,0,0,.79816,1.35073c4.72751,5.03451,9.33224,10.13039,14.24394,14.9193C122.67992,179.34677,125.74973,181.18866,128.574,183.27613Z"/>
        <path class="a5cfdca4-0320-4d0f-ba65-5d369bfaaacb" d="M175.23518,36.53888a30.08028,30.08028,0,0,0-4.42054,1.7805c-4.11356,2.21027-8.2271,4.42053-12.09508,6.99918a18.92791,18.92791,0,0,0-4.85031,5.0345,76.64,76.64,0,0,0-10.80576,23.82177,43.715,43.715,0,0,0,1.22793,26.70741c4.175,10.98994,10.683,20.0766,20.26079,26.8916a35.96816,35.96816,0,0,0,11.7881,5.34148,2.04653,2.04653,0,0,0,.614,0c-2.02607-1.41212-3.99076-2.70144-5.89405-4.05217-6.63079-4.8503-10.56017-11.6653-14.12115-18.91007a68.28592,68.28592,0,0,1-6.6922-28.85628,44.17976,44.17976,0,0,1,8.96387-28.05812c4.54332-6.13963,9.20945-11.97228,15.77886-16.08584C175.051,37.03006,175.051,36.96866,175.23518,36.53888Z"/>
        <path class="b411a51b-1a75-46e3-95e2-2565eb415f0d" d="M21.00759,278.01066A44.81442,44.81442,0,0,0,7.439,292.623a11.43792,11.43792,0,0,0-1.41211,8.04293c.79815,3.68378,2.82423,5.34149,7.429,5.21869a13.7744,13.7744,0,0,0,7.85873-2.947q6.26242-4.60473,12.52485-9.20945a10.9894,10.9894,0,0,0,.921-.85955,27.86415,27.86415,0,0,1-3.62239-1.16652,22.39124,22.39124,0,0,1-9.51643-9.57783C21.00759,281.01908,21.19178,279.42279,21.00759,278.01066Z"/>
        <path class="f3090f87-e592-43e7-b6ba-e47b7385efaa" d="M292.80916,199.91454c.24559,5.28009.49117,10.31457.67537,15.59466,3.06981,0,6.26243.1228,9.51643-.0614,3.3154-.18418,6.63081-.49116,9.88481-.98234a11.14494,11.14494,0,0,0,4.85033-1.65771,7.007,7.007,0,0,0,2.57865-3.99076,20.18946,20.18946,0,0,0-1.65771-13.3844c-3.74516,2.76284-8.2885,3.254-12.46344,4.66613C301.83443,201.51083,297.35249,200.5285,292.80916,199.91454Z"/>
        <path class="ececcb6a-bad7-4692-86b1-b91358638488" d="M33.71663,265.7314c-4.11355,4.11356-7.85873,8.10432-9.51643,13.63a2.18426,2.18426,0,0,0,.36838,1.84189,45.79982,45.79982,0,0,0,4.85031,4.91171c2.27167,1.96469,5.0959,2.02607,7.92013,1.65771,4.9731-.67537,9.88481-1.41211,14.85791-2.08748.12279,0,.24559-.1228.55257-.307C45.50473,279.72977,38.87393,273.65152,33.71663,265.7314Z"/>
        <path class="b411a51b-1a75-46e3-95e2-2565eb415f0d" d="M101.80516,317.73408c.307,1.78051.55257,3.6224.921,5.46429.36838,1.65771,1.7191,2.39447,3.06982,3.06982a39.25016,39.25016,0,0,0,18.4189,4.6661,16.54425,16.54425,0,0,0,1.7191-.2456c3.43819-.36836,3.99076-2.45585,2.82423-5.40287-.79815-1.90327-2.70143-3.3768-4.175-5.0345a1.2146,1.2146,0,0,0-1.04374-.06139c-3.80657,1.65771-7.73594,1.22793-11.6039.42979C108.55876,319.883,105.30476,318.71644,101.80516,317.73408Z"/>
        <path class="ba0a78eb-63b3-452a-bc37-c512364e0128" d="M130.29307,136.30793c1.96468,5.09589,3.62238,10.2532,6.99918,14.55094,1.59631,2.02607,3.19261,4.11356,4.9117,6.07823a3.45,3.45,0,0,0,1.90329,1.16653c4.29775.98235,7.429,3.68378,10.19179,6.8764.307.36838.98235.79814,1.28933.67536,2.82423-.92094,5.70985-.307,8.59548-.307.307,0,.614.0614,1.35073.1228-.85954-1.16653-1.47351-2.08747-2.14887-3.00842-.24558-.36838-.614-.614-.85955-.98234a7.44885,7.44885,0,0,0-4.9117-3.06982,24.6642,24.6642,0,0,1-14.18256-9.148c-.18419-.24558-.42977-.42978-.49117-.67536-.67537-2.14887-2.39446-3.19262-4.17495-4.29775a23.02841,23.02841,0,0,1-7.61315-7.18337c-.18419-.24558-.36838-.42977-.55256-.67536C130.66144,136.36932,130.53865,136.36932,130.29307,136.30793Z"/>
        <path class="fab1f4eb-5162-4073-bbe8-71d01b00072b" d="M197.70625,179.71513c-.42979-3.99076-.0614-4.17494-3.254-3.561a5.42215,5.42215,0,0,1,1.04374.98234,2.63049,2.63049,0,0,1,.307.98235c-.36838,0-.79814.18418-1.10512.0614-1.90329-.85955-3.68378-1.84189-5.58707-2.70144a15.741,15.741,0,0,0-9.20945-.98234,6.80452,6.80452,0,0,0-1.84189.73676c-1.59631.98235-1.96469.79815-3.06982-.55256a27.69886,27.69886,0,0,0-4.54332-4.72753c-4.23635-3.19261-9.14805-3.43819-14.18256-2.45585a3.93957,3.93957,0,0,1-3.62238-1.22793c-1.90329-1.71909-3.80657-3.37679-5.70986-5.0345a1.92048,1.92048,0,0,0-.614-.307c-.1228.1228-.1842.24558-.307.36838,2.947,2.51725,5.70986,5.28009,8.84108,7.49036A56.01361,56.01361,0,0,0,182.41858,178.917c4.72753.42978,9.51643.67537,14.244.98235A6.20044,6.20044,0,0,1,197.70625,179.71513Z"/>
        <path class="fab1f4eb-5162-4073-bbe8-71d01b00072b" d="M167.25366,151.8412a60.99716,60.99716,0,0,1-23.20782-13.99837c-.12279.0614-.307.18419-.42977.24558-.18419,1.90328-.36838,3.80657-.49117,5.70986a1.65431,1.65431,0,0,0,.307.921c3.19261,4.66612,7.06058,8.65689,12.46346,10.80576a15.64669,15.64669,0,0,0,6.8764,1.35072c1.96469-.1228,2.76283-.73676,3.37679-2.57865A16.23261,16.23261,0,0,1,167.25366,151.8412Z"/>
        <path class="ec245c59-77ec-4730-ae02-204ef2e5f854" d="M193.3471,209.92213c-10.069,4.48193-20.50637,5.34149-30.88235,6.07824,0,.18418-.0614.307-.0614.49116.98235.49116,1.96469,1.04374,3.00842,1.47351,2.70144,1.04374,5.34149,2.21027,8.10432,3.00841a15.37284,15.37284,0,0,0,11.84949-1.4121c3.62238-1.90329,7.122-3.92937,10.683-5.89406C195.43457,211.9482,192.61034,212.62357,193.3471,209.92213Z"/>
        <path class="fab1f4eb-5162-4073-bbe8-71d01b00072b" d="M190.21589,158.472c-7.736-.614-14.73512-3.13121-21.7957-6.01683-.55257,1.53491-1.10513,3.00842-1.53491,4.35914,5.77125,4.72753,12.46345,5.95545,19.524,6.01684a3.56321,3.56321,0,0,0,2.27167-1.16653A19.52427,19.52427,0,0,0,190.21589,158.472Z"/>
        <path class="fab1f4eb-5162-4073-bbe8-71d01b00072b" d="M141.22162,143.18431c.42977-2.14887.92094-3.92936,1.10513-5.77125.0614-.614-.55256-1.35072-1.10513-1.84189-3.49959-3.254-7.06058-6.38522-10.49878-9.70062-1.16652-1.10514-1.96468-2.51726-3.13121-3.80658.24558,2.64005-.307,5.46427,1.5349,7.79734,2.64005,3.3768,5.28009,6.815,8.04293,10.13038A25.18756,25.18756,0,0,0,141.22162,143.18431Z"/>
        <path class="a5cfdca4-0320-4d0f-ba65-5d369bfaaacb" d="M137.722,84.67361c-.18419-9.82341,3.62238-18.3575,7.92012-27.32137-1.90329.18419-3.43819.18419-4.8503.42977-.307.0614-.614.79816-.73676,1.22793-1.6577,7.18337-3.254,14.42814-4.9117,21.67291C134.40662,83.69127,134.34522,83.69127,137.722,84.67361Z"/>
        <path class="ececcb6a-bad7-4692-86b1-b91358638488" d="M121.69758,316.87455c-6.99918-1.84189-13.99836-3.74516-21.05894-5.587a3.14613,3.14613,0,0,0,1.59631,2.947,22.86082,22.86082,0,0,0,4.72751,2.02607c4.60473,1.22793,9.33224,1.96469,14.12116.79815.18419-.06138.42977-.1228.614-.18419C121.82037,316.81314,121.82037,316.69037,121.69758,316.87455Z"/>
        <path class="fab1f4eb-5162-4073-bbe8-71d01b00072b" d="M199.057,158.53339c-2.21027,0-4.48192-.0614-6.69219.0614a1.49609,1.49609,0,0,0-1.04375.79815c-.614,1.22793-1.04374,2.45585-1.65771,3.92936,2.27168.55256,4.54333,1.10513,6.8764,1.65771.24558.0614.67536-.307.79815-.55256C197.829,162.52416,198.38161,160.68227,199.057,158.53339Z"/>
        <path class="ececcb6a-bad7-4692-86b1-b91358638488" d="M139.07275,187.45107c-3.00842-3.868-6.07824-7.73594-9.33224-11.91088a36.22743,36.22743,0,0,1,.85954,5.83265c.0614,3.19261,1.78049,4.54332,4.60473,5.21869,1.22792.307,2.45585.73676,3.68378,1.10512C138.88856,187.57387,139.01135,187.51247,139.07275,187.45107Z"/>
        <g>
          <path class="e3a21e37-f3d3-4075-9244-fabb00a67f19" d="M301.15907,232.516c-3.00842,3.06981-6.93778,3.92936-10.92854,4.29774a6.92612,6.92612,0,0,0-5.21869,2.33305,10.40688,10.40688,0,0,1-1.78049,1.35073l.36838.55256c2.70144,3.68378,5.95545,7.06058,8.04293,11.05134,4.11356,7.79735,9.51643,14.79652,13.38439,22.71665a198.40861,198.40861,0,0,1,12.46345,31.98749c2.14887,7.55174,4.29774,15.10348,7.06058,22.471,1.65771,4.42055,4.42054,8.41131,6.75359,12.52487.2456.36836.98233.49116,1.53491.67535.18418.06138.36836-.06139.55258,0,2.82422.55258,3.80658-1.16655,4.72753-3.43818a29.68559,29.68559,0,0,0,1.96469-13.016c-.36836-6.13964-.67535-12.34065-1.28931-18.4189a131.1666,131.1666,0,0,0-6.01683-29.10186c-2.02607-6.01684-4.60473-11.91089-7.24476-17.74354a120.94621,120.94621,0,0,0-7.18338-13.323c-3.561-5.77125-8.96385-9.70062-14.61232-13.323C302.87816,233.55972,302.08,233.06856,301.15907,232.516Z"/>
          <path class="e3a21e37-f3d3-4075-9244-fabb00a67f19" d="M268.00505,244.36548c.18418.85955.36838,1.53491.49116,2.33305,1.10513,5.09589,2.33306,10.1918,3.254,15.34909a126.20929,126.20929,0,0,1,1.78049,13.56859c.42978,6.38522.36838,12.77043.614,19.217.1228,2.70145.55257,5.34148.67537,8.0429.307,6.32382.49116,12.709.73676,19.03286a161.18576,161.18576,0,0,0,3.99076,28.6721c.1228.42978.24558.79814.36838,1.22793.18419,1.04374.73677,1.47352,1.90329,1.47352a11.49528,11.49528,0,0,1,3.4996.73677c.79815.307,1.16653.06138,1.65771-.55258a43.1654,43.1654,0,0,0,7.36756-14.61232,87.52041,87.52041,0,0,0,3.80658-24.86552c.0614-5.28007.1228-10.62156.24558-15.90167.1228-7.67454-1.28932-15.1649-2.82423-22.59384-1.28933-6.26243-2.82424-12.46345-4.29775-18.66448a12.01441,12.01441,0,0,0-1.28932-3.19262c-2.08747-3.92936-4.11356-7.98152-7.18338-11.29692a1.81308,1.81308,0,0,0-2.39445-.614,68.32874,68.32874,0,0,1-8.53409,2.57865A15.85026,15.85026,0,0,1,268.00505,244.36548Z"/>
          <path class="e3a21e37-f3d3-4075-9244-fabb00a67f19" d="M302.3256,151.9026v.85954c0,3.80658.24558,3.868,3.92936,4.72753,2.64005.614,4.48194-.1228,6.44663-1.78049a108.26858,108.26858,0,0,0,22.10268-26.339,182.08065,182.08065,0,0,0,14.48952-28.4265,149.1475,149.1475,0,0,0,7.49036-24.55853c1.04375-5.15729-.55258-9.63923-3.6224-13.63-1.47352-1.96468-3.80658-2.14887-6.01683-2.21027-.42978,0-.92094.55257-1.28931.98234-6.63079,9.02526-11.84948,18.91008-17.43657,28.6107-3.43818,5.894-7.06058,11.7267-10.43738,17.68215a161.10056,161.10056,0,0,0-13.016,27.99672A59.57357,59.57357,0,0,0,302.3256,151.9026Z"/>
          <path class="e3a21e37-f3d3-4075-9244-fabb00a67f19" d="M246.76191,223.12234c-.55256.67537-.85954.98235-1.10512,1.35073-1.71909,2.76284-3.3768,5.64847-5.09589,8.34991a5.98866,5.98866,0,0,1-2.08747,2.02607,8.01918,8.01918,0,0,1-6.07824.49116,4.07637,4.07637,0,0,1-3.13121-3.4996,45.82338,45.82338,0,0,0-3.4382,3.80658,52.26725,52.26725,0,0,0-5.83265,11.72671,140.93009,140.93009,0,0,0-8.22711,45.1263c-.1228,5.28007.0614,10.62156.18418,15.90167.24558,7.85872,2.57866,15.22628,5.40287,22.471a22.35949,22.35949,0,0,0,1.35073,3.00844c1.04375,1.78051,2.70144,1.71909,3.80658.06138,2.08747-3.19262,4.11356-6.44662,4.72753-10.31458.73676-4.60472,1.10512-9.27083,1.78049-13.87555,1.22792-8.41131,2.333-16.884,3.92936-25.2339,1.41211-7.429,3.254-14.73512,5.15729-22.04128a108.57229,108.57229,0,0,1,3.68378-10.62156c1.22792-3.3768,2.82423-6.6308,3.868-10.069a16.47225,16.47225,0,0,0,.42978-6.26243,41.52046,41.52046,0,0,1,.49116-11.05134A4.20087,4.20087,0,0,0,246.76191,223.12234Z"/>
          <path class="e3a21e37-f3d3-4075-9244-fabb00a67f19" d="M264.38267,240.92728c-3.19262,1.53491-6.44662,3.19262-9.82341,4.72753a5.79538,5.79538,0,0,1-6.07824-.49117c.24558,4.72753.36838,9.20945.614,13.63.36838,6.32381.92094,12.58625,1.10512,18.84868.24558,8.10432.307,16.27.307,24.43573,0,5.70985-.36838,11.41971-.49116,17.191-.1228,5.28007-.307,10.56017-.307,15.84024a29.694,29.694,0,0,0,2.57865,11.91091c.614,1.41211,3.74518,1.71909,4.54333.307a75.32414,75.32414,0,0,0,6.38521-14.61232c2.08747-6.56942,3.06982-13.323,3.99076-20.07661.85955-6.38523,1.59631-12.83185,1.90329-19.217.36839-7.30616.42979-14.61232.36839-21.9185-.1228-6.7536-.49117-13.5686-1.10513-20.32219-.18418-2.51726-1.28933-4.91171-1.96469-7.36756-.0614-.18419-.36838-.307-.49116-.49117C265.365,242.46219,264.87383,241.60265,264.38267,240.92728Z"/>
          <path class="e3a21e37-f3d3-4075-9244-fabb00a67f19" d="M374.46629,92.47094c-.49116-3.49959-.73676-6.75359-1.41211-9.9462a13.42748,13.42748,0,0,0-5.03451-7.85873c-1.7805-1.41212-3.74516-2.64005-5.58705-3.99077-.49116-.36838-.79814-1.04373-1.35072-1.28932a6.57211,6.57211,0,0,0-1.96469-.42977c-.06139.55256-.36837,1.10513-.2456,1.5963,1.04374,3.62238.49116,7.30616-.12281,10.86715a122.92221,122.92221,0,0,1-14.12115,39.53925c-2.70146,4.85031-5.77127,9.455-8.59549,14.18256a16.6442,16.6442,0,0,0-1.35073,3.00841c-1.71909,5.64847-3.49959,11.29692-3.99076,17.25238-.2456,3.13121-.2456,6.26243-.307,9.39363,0,.307.49116.73676.85956.79814,1.71909.42978,2.947-.67536,4.175-1.59631,2.45585-1.90329,4.85032-3.80658,7.18338-5.77125a67.20013,67.20013,0,0,0,15.47188-18.5417c6.38523-11.05134,11.5425-22.53245,14.36676-34.99591C373.484,100.57526,373.85233,96.40031,374.46629,92.47094Z"/>
          <path class="e3a21e37-f3d3-4075-9244-fabb00a67f19" d="M333.76053,49.24793a27.02161,27.02161,0,0,0-3.1312,1.22792,24.33446,24.33446,0,0,0-9.20945,8.77968c-4.72753,7.18337-9.33225,14.48954-13.69138,21.91849-4.05216,6.87639-7.79734,13.937-11.6653,20.93615-3.3768,6.13963-6.56942,12.34066-7.85872,19.27844-.73677,3.99076-1.59631,7.92012-2.45586,11.8495-.18418.85954-.0614,1.4735.921,1.7191a1.82076,1.82076,0,0,1,.92094.42977c2.08748,1.7191,3.99077,1.16652,5.83266-.36838,1.71909-1.41212,3.43819-2.82424,4.9731-4.35915,2.57866-2.57864,5.03451-5.28009,7.55174-7.98152,3.3154-3.561,5.46427-7.85873,7.736-12.15648,4.23636-7.98152,8.71828-15.84025,13.20021-23.699,3.80658-6.69219,7.79734-13.26161,11.7881-19.831,1.53491-2.51726,3.3768-4.85031,5.09589-7.18337a2.21907,2.21907,0,0,0,.18418-2.51725c-1.59629-4.29775-5.03451-6.38522-9.02527-7.92013A5.83419,5.83419,0,0,1,333.76053,49.24793Z"/>
          <path class="e3a21e37-f3d3-4075-9244-fabb00a67f19" d="M330.62929,45.99392a22.67624,22.67624,0,0,1-3.43818.67536c-3.74516.18419-7.49036.18419-11.23552.307a4.78165,4.78165,0,0,0-1.28931.24559,32.71354,32.71354,0,0,0-13.13881,7.98152C295.20366,61.343,289.86217,68.28079,284.2751,74.973a116.41625,116.41625,0,0,0-16.27,24.49714c-2.21027,4.54333-4.66613,9.20945-4.91171,14.36674-.24558,4.05216,0,8.16571.0614,12.27927,0,.85954,2.64,2.57864,3.68378,2.57864a5.5116,5.5116,0,0,0,3.62238-1.53491c6.07823-4.9117,9.94621-11.35832,13.50719-18.17332a95.38785,95.38785,0,0,1,16.51561-23.57619,28.08853,28.08853,0,0,0,3.68378-5.15729c2.57866-4.11356,5.09591-8.28851,7.61315-12.40206,2.27167-3.62238,4.35912-7.429,6.87639-10.86715,2.39448-3.3154,5.21869-6.32382,9.14807-7.98152.79815-.36838,1.65771-.49118,2.45586-.85955.49116-.24559,1.16654-.614,1.2893-1.04374s-.36836-1.04373-.614-1.5963A3.42691,3.42691,0,0,0,330.62929,45.99392Z"/>
          <path class="e3a21e37-f3d3-4075-9244-fabb00a67f19" d="M229.57094,229.63036a14.80238,14.80238,0,0,0-2.33305-.42978c-4.11357,0-8.28851.1228-12.40207.1228a7.259,7.259,0,0,0-5.58707,2.51725c-2.76284,2.88564-5.58707,5.70985-8.16571,8.77967a57.76469,57.76469,0,0,0-9.762,17.25237,93.49963,93.49963,0,0,0-4.91171,20.01521c-1.10512,7.24476-1.84189,14.48954-2.39445,21.7957-.24558,3.19262.42978,6.44662.614,9.63923.24559,5.52567.614,11.05134.614,16.577-.0614,7.49036,3.3768,13.13883,8.71828,17.92774,1.04375.921,2.02608,0,2.88564-.307a1.52549,1.52549,0,0,0,.79814-1.35073,12.58524,12.58524,0,0,1,1.53491-6.508,4.53321,4.53321,0,0,0,.307-3.68378c-1.96469-6.01684-2.08747-12.27927-2.76283-18.5417a159.56221,159.56221,0,0,1-.1228-29.16326c.36838-4.85031,1.53491-9.70062,2.27167-14.48954a57.76323,57.76323,0,0,1,9.88482-24.06737c1.6577-2.33306,3.37679-4.66613,5.21868-6.8764,1.90329-2.333,4.72753-3.3154,7.55175-3.99076,1.96469-.49116,3.74518-.98235,5.09588-2.64A11.24245,11.24245,0,0,1,229.57094,229.63036Z"/>
          <path class="e3a21e37-f3d3-4075-9244-fabb00a67f19" d="M246.51633,244.918c-.36838,1.71909-.73676,3.3768-1.16652,5.09589-.921,3.4382-1.96469,6.815-2.82424,10.31458-1.28933,4.91171-2.45585,9.88481-3.62238,14.85792-2.27167,9.63923-3.4996,19.524-4.85031,29.34744-1.10512,7.73592-2.51725,15.34908-3.80658,23.02362a1.78078,1.78078,0,0,0,0,.98233,82.26574,82.26574,0,0,0,7.98153,22.22548,10.6721,10.6721,0,0,0,.614,1.16655c1.10513,1.71909,2.76284,1.65771,3.68378-.18418.42978-.79815.73676-1.65771,1.10513-2.51724a13.072,13.072,0,0,0,.67536-2.02607c.55256-3.06982,3.00842-5.52567,2.57865-9.02527-.36838-3.06982.0614-6.26243.18419-9.39363.42978-9.20945,1.10512-18.48028,1.35072-27.68973.24558-12.64765.36838-25.2953-.614-37.94293-.42978-5.40287-.49116-10.86716-.67536-16.27v-1.78049A.9602.9602,0,0,0,246.51633,244.918Z"/>
          <path class="e3a21e37-f3d3-4075-9244-fabb00a67f19" d="M223.00152,235.83139c-4.72752.921-8.59548,2.947-10.86715,6.8764-3.62238,6.26243-7.36756,12.58625-8.84107,19.831-1.90329,9.14805-3.99076,18.23472-3.99076,27.68975,0,5.64847-.24559,11.29692.1228,16.884a141.96477,141.96477,0,0,0,2.14887,19.09425c1.10512,5.70985,3.74518,10.98995,6.87639,15.963,1.53491,2.45586,3.00842,4.91171,4.54333,7.36756.73676,1.16655,1.84189,1.22793,2.57865.06138,1.59631-2.57865,3.06982-5.21868,4.54333-7.79734-.1228-.18418-.1228-.307-.18418-.36836-3.254-.55258-4.72753-2.76284-5.34149-5.83265-1.59631-7.67454-3.74518-15.28771-4.72753-23.02363-1.53491-11.97228-.79814-24.06737.73677-36.03965a146.77642,146.77642,0,0,1,5.15728-24.12876c1.41211-4.60472,3.4996-8.96386,5.34149-13.38439A21.55831,21.55831,0,0,1,223.00152,235.83139Z"/>
          <path class="e3a21e37-f3d3-4075-9244-fabb00a67f19" d="M268.68041,132.37856a16.343,16.343,0,0,1-2.39445.42977,4.43976,4.43976,0,0,1-2.39445-.12279,3.00782,3.00782,0,0,0-2.88564.0614c-4.17494,1.41212-7.49036,4.05216-10.56018,7.122A57.46418,57.46418,0,0,0,239.45575,155.832c1.04375,1.71909,2.21028,3.3768,3.13122,5.15729,2.76284,5.34149-.24558,14.30534-9.39363,13.20021-.85955-.1228-1.16653.18418-1.53491.85954-1.71909,3.68378-3.3768,7.36756-5.28009,10.92854a32.051,32.051,0,0,1-3.3154,4.29775,3.09146,3.09146,0,0,0-.67536,1.59631c-.1228,6.201,1.71909,11.97228,3.99076,17.62075a1.82058,1.82058,0,0,0,1.04375.98235c1.10512.36838,2.21027.614,3.3154.92094.85954.24558,1.28932.0614,1.6577-.85954,1.28933-3.3768,2.76284-6.6922,3.99077-10.069a9.79882,9.79882,0,0,0,.614-3.74518,8.42592,8.42592,0,0,1,3.868-7.73594,2.07571,2.07571,0,0,0,.79815-1.10513c3.74518-12.03368,8.96386-23.4534,14.24395-34.87311a36.51518,36.51518,0,0,1,11.60391-13.937C270.2767,137.16748,270.58368,135.32559,268.68041,132.37856Z"/>
          <path class="e3a21e37-f3d3-4075-9244-fabb00a67f19" d="M291.76542,139.62333c-1.53491,1.28933-3.06982,1.04375-4.72753.614a2.98155,2.98155,0,0,0-2.27167.36839,9.574,9.574,0,0,0-4.48192,5.64847c-3.3154,11.6653-8.41131,22.59384-13.323,33.64518-1.04375,2.27167-2.14888,4.48192-3.254,6.8764,4.23634.67536,7.61314,2.947,10.74436,5.58707,2.14887,1.78049,4.66612,1.84189,7.24476,1.6577.42978,0,.98234-.73676,1.16652-1.22792,1.41211-4.29775,2.947-8.53409,4.05216-12.95463,2.45586-9.455,4.85031-18.91007,7.06058-28.4265.73677-3.3154,1.10513-6.815-.92094-9.94621C292.68636,140.91266,292.2566,140.36009,291.76542,139.62333Z"/>
          <path class="e3a21e37-f3d3-4075-9244-fabb00a67f19" d="M374.52767,79.08654c3.1312,8.65689,2.88564,17.12957.79815,25.54088a147.86728,147.86728,0,0,1-17.43658,41.50393,68.27245,68.27245,0,0,1-11.6653,13.87557c-1.65771,1.59631-3.3768,3.13122-5.03451,4.72753a2.19621,2.19621,0,0,0-.67534,1.35072c-.307,2.45586-.49117,4.91171-.85957,7.30616-.18418,1.16653.36837,1.53491,1.22793,1.22793a23.39771,23.39771,0,0,0,4.48192-2.21027,74.0552,74.0552,0,0,0,21.6729-23.26921,87.738,87.738,0,0,0,10.86716-25.1111c2.08749-8.3499,4.11356-16.7612,3.92938-25.47947a56.21681,56.21681,0,0,0-.98232-10.1918C380.05334,84.61221,377.65891,81.72659,374.52767,79.08654Z"/>
          <path class="e3a21e37-f3d3-4075-9244-fabb00a67f19" d="M298.33483,266.89792c1.28933,6.99918,2.947,13.4458,3.62238,20.01521.73677,6.56942.614,13.26161.67537,19.89241.0614,3.92938-.0614,7.92014-.36838,11.84949-.36839,4.11356-1.10513,8.1657-1.59631,12.27926a7.08919,7.08919,0,0,0,.24558,3.00844c.85954,2.64,1.84189,5.28007,2.82423,7.85872s3.4996,3.06982,5.09589.79815a56.5906,56.5906,0,0,0,4.91171-8.28851,117.29546,117.29546,0,0,0,4.78891-12.21788,6.64811,6.64811,0,0,0-.1228-3.6224c-1.84189-6.56942-3.74517-13.13883-5.83266-19.64683A167.75193,167.75193,0,0,0,301.7116,273.2217C300.66789,271.31847,299.56276,269.2924,298.33483,266.89792Z"/>
          <path class="e3a21e37-f3d3-4075-9244-fabb00a67f19" d="M319.70075,45.25717a7.03542,7.03542,0,0,0-4.54334-2.82423c-7.79734-1.59631-15.53327-1.41212-22.71665,2.08747-4.05216,1.96468-7.67454,4.72752-11.35832,7.36756a49.3278,49.3278,0,0,0-12.58625,13.38441,5.99618,5.99618,0,0,0-1.04374,5.52567,51.701,51.701,0,0,1,.614,17.92772c-.0614.55257-.1228,1.16653-.18418,1.7191v1.04374c.49116-.73676.73676-1.16653.98235-1.59631a104.70085,104.70085,0,0,1,10.98994-15.90165c4.72752-5.58707,9.455-11.17413,14.36673-16.577a43.81049,43.81049,0,0,1,13.07742-9.88481c2.27165-1.10513,4.9731-1.35071,7.49034-1.84189C316.324,45.50275,317.92028,45.44135,319.70075,45.25717Z"/>
          <path class="e3a21e37-f3d3-4075-9244-fabb00a67f19" d="M284.82764,139.255c-.98234-.921-1.84189-1.78049-2.76283-2.51725a1.57967,1.57967,0,0,0-1.10513-.307,14.48193,14.48193,0,0,0-13.016,4.72753,42.06627,42.06627,0,0,0-8.65689,13.20021c-3.3768,8.28851-6.93778,16.51561-10.376,24.80412-1.10513,2.64-2.08748,5.28008-3.19262,8.04292.67536-.0614,1.28933-.18418,1.84189-.24558,3.62238-.1228,7.30616-.36838,10.92854-.36838a1.81524,1.81524,0,0,0,2.02607-1.28933c3.254-8.04292,6.44662-16.08585,9.88481-24.006,2.21028-5.09589,4.66613-10.1304,7.24476-15.1035a14.31431,14.31431,0,0,1,6.32382-6.32382A5.76257,5.76257,0,0,1,284.82764,139.255Z"/>
          <path class="e3a21e37-f3d3-4075-9244-fabb00a67f19" d="M180.63805,322.216c0-1.16654.0614-2.39447,0-3.561-.18418-4.7889-.49116-9.51643-.614-14.30533a100.53386,100.53386,0,0,1,1.41211-17.68214,184.8948,184.8948,0,0,1,4.48192-21.61152,58.0558,58.0558,0,0,1,13.63-24.80411c2.14887-2.33306,4.35914-4.60473,6.508-6.93778a6.0089,6.0089,0,0,0,1.28933-2.21027c-.49116.18418-1.04375.36838-1.53491.55256-8.53409,3.62238-15.1649,9.455-20.81335,16.69981a62.44412,62.44412,0,0,0-9.88482,19.15566c-1.96469,6.01684-3.68378,12.09509-3.68378,18.4803a54.99446,54.99446,0,0,0,1.41211,12.27927c1.47351,6.38523,3.3768,12.70905,5.28009,19.03286a44.25187,44.25187,0,0,0,2.14887,5.03451A.51874.51874,0,0,1,180.63805,322.216Z"/>
          <path class="e3a21e37-f3d3-4075-9244-fabb00a67f19" d="M302.4484,231.65643c2.21027,1.41211,4.35914,2.76284,6.44661,4.23634,6.9992,4.97311,11.97229,11.60391,16.20865,18.97147a113.97683,113.97683,0,0,1,9.51643,20.38359,166.72981,166.72981,0,0,1,7.67454,33.2768c.85957,7.30618,1.16655,14.67374,1.71909,22.0413v.73676c-.06138,2.33306.1228,2.51724,2.88564,2.947.55258-2.57865,1.10512-5.21869,1.59629-7.85872,1.53491-8.90247.18418-17.68214-1.78051-26.339A181.70582,181.70582,0,0,0,334.927,264.93323a75.74974,75.74974,0,0,0-23.82177-29.83862c-1.90327-1.41211-3.868-2.70143-5.70985-4.17494C304.04469,229.93734,303.24654,230.24432,302.4484,231.65643Z"/>
          <path class="e3a21e37-f3d3-4075-9244-fabb00a67f19" d="M300.85209,143.18431A14.8704,14.8704,0,0,0,295.572,152.271c-1.41211,8.28851-2.51725,16.63841-4.17494,24.86552-.98235,4.8503-2.76284,9.57783-4.23635,14.36673l-.614,1.84189a13.24667,13.24667,0,0,0,1.71909-.1228c1.71909-.42978,2.57865,0,3.254,1.59631.36838.921.55256,2.39446,1.16652,2.57866a19.05592,19.05592,0,0,0,4.66613.55256c1.28933-6.7536,2.45585-13.26161,3.74518-19.831.49116-2.51725,1.28933-5.03451,1.53491-7.61314a83.32767,83.32767,0,0,0,.307-8.77967c0-.36838-.614-.73676-.85955-1.16653a7.048,7.048,0,0,1-1.5349-2.08747c-1.35073-4.72752-.614-9.455.0614-14.18255A3.63034,3.63034,0,0,0,300.85209,143.18431Z"/>
          <path class="e3a21e37-f3d3-4075-9244-fabb00a67f19" d="M300.66789,198.01125a28.776,28.776,0,0,0,3.74518-.73677q4.42051-1.47351,8.84107-3.13121a2.03329,2.03329,0,0,0,1.04374-1.47351c.85957-7.92012,1.35073-15.77887-.06138-23.699-.49116-2.88563-.85956-5.77125-1.22793-8.47269-2.88563.55257-5.64847,1.10513-8.4113,1.59631C304.04469,173.88248,303.18514,185.91616,300.66789,198.01125Z"/>
          <path class="e3a21e37-f3d3-4075-9244-fabb00a67f19" d="M274.20608,219.25438c-2.14887.24558-4.29774.49117-6.32381.73677-4.66613.67536-9.33225,1.22792-14.05976.42978-1.41211-.24558-3.00842.42978-4.48192.85954-.24559.0614-.49117.73677-.55257,1.16653a35.39345,35.39345,0,0,0,.79815,11.91089,47.614,47.614,0,0,0,1.53491,5.0345,1.29241,1.29241,0,0,0,1.84189.85955,44.0385,44.0385,0,0,0,5.77125-2.45586,46.431,46.431,0,0,0,10.49877-8.77966,29.33521,29.33521,0,0,1,2.76284-2.76284A8.74634,8.74634,0,0,0,274.20608,219.25438Z"/>
          <path class="afa65a13-94a9-4b95-83a5-ead2afc0c2aa" d="M318.71842,36.2933c3.06982,1.6577,6.26244,3.19261,9.14807,5.0959a34.57035,34.57035,0,0,1,5.15731,4.78891,1.77671,1.77671,0,0,1,.307,1.10514c3.1312,1.41211,6.07825,2.70144,8.96385,4.05215a7.08008,7.08008,0,0,1,3.43818,3.62239c.614,1.41212,1.28931,2.76283,2.08749,4.48193,5.58705-.55256,7.79734,3.868,10.19178,8.22711l1.65771-.36838c-.614-1.78049-1.10513-3.49959-1.71909-5.21869a5.56351,5.56351,0,0,1,.55258-5.0959c.73676-1.16653,1.35073-2.33306,2.02607-3.49959a1.3219,1.3219,0,0,0-.06138-1.78049,13.58155,13.58155,0,0,1-2.82422-7.30617c-.1228-1.53491-.36836-2.947-2.39447-3.43819-.73676-.18419-1.22793-1.35072-1.78051-2.08748a8.49436,8.49436,0,0,1-.85956-1.6577c-.36836.614-.79815,1.16653-1.10513,1.7805a38.19387,38.19387,0,0,1-2.39447,5.34148c-2.21025,3.3154-5.64847,4.11355-9.20945,2.33306a19.66779,19.66779,0,0,1-3.74516-2.64005,38.39345,38.39345,0,0,0-14.9193-7.85873,15.05877,15.05877,0,0,0-2.39447-.24558A.8724.8724,0,0,0,318.71842,36.2933Zm25.0497,13.20021c2.39447.55257,4.54335.67536,6.13964-.73675a41.77526,41.77526,0,0,0,3.92938-4.60473c.36836,1.6577-1.78051,4.85031-3.92938,5.89405C347.26772,51.21261,345.11885,51.21261,343.76812,49.49351Zm3.99076,5.58707a1.04507,1.04507,0,0,0-.06138-.42977c.307-.12279.55258-.36838.85957-.307a3.28628,3.28628,0,0,0,2.947-1.47352c.55258-.67536,1.04375-1.35071,1.65771-2.02608.98233-1.04373,2.02607-2.08747,3.00844-3.06981.18418.12279.36836.307.55258.42977a9.0844,9.0844,0,0,1-.79815,1.28932q-1.47348,1.7498-2.947,3.3154a21.78607,21.78607,0,0,1-2.08749,2.02608A2.906,2.906,0,0,1,347.75888,55.08058Zm7.67455,3.99076c-1.84189-2.64-.49117-7.122,2.51723-7.79733A9.46682,9.46682,0,0,0,355.43343,59.07134Z"/>
          <path class="e3a21e37-f3d3-4075-9244-fabb00a67f19" d="M264.751,63.49188c2.21027-2.76284,4.17495-5.64847,6.56942-8.16572a58.19,58.19,0,0,1,16.08584-11.60391,36.1939,36.1939,0,0,1,17.0068-3.68378,44.51106,44.51106,0,0,1,12.46344,1.59631,6.57,6.57,0,0,1,4.29775,3.13121,1.56611,1.56611,0,0,0,.92094.55257c2.14888.06139,4.35913.12279,6.508.12279a1.25754,1.25754,0,0,0,.73676-.614c-.1228-.42977-.42978-1.22792-.73676-1.22792-3.6224-.24559-6.508-2.33306-9.70061-3.62239-4.54335-1.84189-9.27084-2.27166-14.12116-2.64-10.43738-.79816-19.70823,2.64-28.6721,7.30616-5.34148,2.76284-9.63923,6.815-14.05975,10.74436a1.70909,1.70909,0,0,0-.307,2.51725C262.78636,59.6853,263.76871,61.65,264.751,63.49188Z"/>
          <path class="e3a21e37-f3d3-4075-9244-fabb00a67f19" d="M261.19005,131.02784c-.0614-.307-.0614-.36838-.1228-.36838-.98234-2.21027-2.76283-2.76283-5.0345-2.45585a35.06479,35.06479,0,0,0-5.09589.67536,7.19223,7.19223,0,0,0-2.947,1.90329c-5.83265,5.46427-12.27927,9.82342-20.38359,10.98994-.36838.0614-.73676.18418-1.22793.307,5.58707,2.21028,6.6922,5.34149,5.21869,11.11274,1.47351.307,2.947.67537,4.48193.92095a1.07483,1.07483,0,0,0,.92094-.614c3.13122-6.32382,7.98152-11.29693,13.20021-15.90165a32.83644,32.83644,0,0,1,9.02527-5.64846C259.83933,131.70321,260.51469,131.33483,261.19005,131.02784Z"/>
          <path class="e3a21e37-f3d3-4075-9244-fabb00a67f19" d="M267.57527,239.26957c9.63923.98235,21.12033-4.54332,23.699-16.39283-2.88564,2.08748-5.46427,1.04375-8.04293-.55256a20.14943,20.14943,0,0,0-7.06058-3.00842v3.561a12.98847,12.98847,0,0,1-2.45585,6.508c-1.47351,2.333-3.13122,4.60472-4.66612,6.93778A21.99562,21.99562,0,0,0,267.57527,239.26957Z"/>
          <path class="e3a21e37-f3d3-4075-9244-fabb00a67f19" d="M245.34981,221.03487c-7.06058-3.13121-9.70062-9.08665-4.72753-14.73512-1.04374-1.53491-2.02607-3.13121-3.13122-4.72752A53.20611,53.20611,0,0,0,233.4389,215.018c-.42978,3.00842-.73676,6.01683-1.04374,9.02527a9.23193,9.23193,0,0,0,0,1.84189c.55256,4.42054.18418,3.68378,4.42054,3.99076a2.257,2.257,0,0,0,1.65771-.79814C240.92926,226.43774,243.13953,223.67491,245.34981,221.03487Z"/>
          <path class="e3a21e37-f3d3-4075-9244-fabb00a67f19" d="M218.02844,225.20982a52.24355,52.24355,0,0,1,.55256-31.55772c-2.51725,1.59631-4.42054,3.06982-5.64847,5.34149-1.41211,2.45586-2.88564,4.91171-4.29774,7.36756a2.74876,2.74876,0,0,0-.24559,1.22793c.24559,5.58707,2.33306,10.56018,5.28009,15.22628C214.65164,224.22747,216.12515,224.71865,218.02844,225.20982Z"/>
          <path class="e3a21e37-f3d3-4075-9244-fabb00a67f19" d="M296.73853,93.51468c-1.41211,2.02608-2.88564,3.99076-4.175,6.07823-3.92936,6.38522-7.67454,12.95463-11.84948,19.15566-2.64,3.99076-6.01684,7.49035-8.96387,11.29692a2.48306,2.48306,0,0,0-.49116,2.02608c.1228.42977,1.16652.73675,1.78049.73675,2.64,0,4.9117-.67536,6.32381-3.31539,1.71909-3.13122,3.74518-6.01685,5.58707-9.08666a6.063,6.063,0,0,0,.73676-1.7191c1.71909-7.18337,5.40287-13.5686,8.77967-20.0152q1.28933-2.39447,2.57866-4.78892A1.62877,1.62877,0,0,0,296.73853,93.51468Z"/>
          <path class="e3a21e37-f3d3-4075-9244-fabb00a67f19" d="M229.07978,227.72707c.614-4.29774,1.28932-8.59549,1.96469-13.016-.79815.0614-1.59631.18418-2.39446.24558-2.76283.36838-4.7889-.614-5.15728-3.74518a87.69524,87.69524,0,0,0-2.02608-8.84107,31.31214,31.31214,0,0,1-.49116-4.11356h-.42978c-.1228,3.3154-.49116,6.56942-.307,9.88481.307,5.34149.98234,10.62156,1.41211,15.96305.1228,1.28933,1.10512,1.59631,1.90329,1.90329C225.396,226.68332,227.29927,227.17451,229.07978,227.72707Z"/>
          <path class="e3a21e37-f3d3-4075-9244-fabb00a67f19" d="M332.34842,140.48288c-2.333,2.70143-4.35913,5.15728-6.56942,7.49036-2.51723,2.70143-5.21869,5.28008-7.85872,7.85872a5.12287,5.12287,0,0,0-1.28931,4.66612,2.74548,2.74548,0,0,0,2.45586,2.27168c2.82421.49116,5.77127-1.28933,7.36756-4.11357A35.1267,35.1267,0,0,0,329.033,151.964C330.13813,148.34162,331.18187,144.59644,332.34842,140.48288Z"/>
          <path class="e3a21e37-f3d3-4075-9244-fabb00a67f19" d="M305.88658,220.66649c-4.11357-.24558-8.28851-.42978-12.15647-.67536-1.22793,4.05216-2.45585,8.10432-3.62238,12.03368C295.4492,231.902,303.61492,225.5782,305.88658,220.66649Z"/>
          <path class="e3a21e37-f3d3-4075-9244-fabb00a67f19" d="M306.62334,123.96727c-4.35914,6.69219-7.49036,14.05975-10.31458,21.55011,1.65771-1.53491,3.3154-3.00841,4.91171-4.66612.36838-.36838.307-1.10513.49116-1.6577q2.48657-6.99919,4.97311-13.99837a7.48864,7.48864,0,0,1,.42978-1.04373A4.23015,4.23015,0,0,1,306.62334,123.96727Z"/>
          <path class="afa65a13-94a9-4b95-83a5-ead2afc0c2aa" d="M277.70566,135.32559c1.59631,0,2.76284.0614,3.92936,0a.885.885,0,0,0,.67537-.55257c.79814-3.43819,1.53491-6.93778,2.02607-10.49877C282.18761,127.83524,280.03873,131.39623,277.70566,135.32559Z"/>
          <path class="afa65a13-94a9-4b95-83a5-ead2afc0c2aa" d="M292.68636,138.3954c.85955,1.35073,1.65771,2.64,2.57866,4.11357,1.35072-3.4382,2.70143-6.6922,4.17494-10.376C296.98411,134.40464,294.77385,136.43072,292.68636,138.3954Z"/>
          <path class="e3a21e37-f3d3-4075-9244-fabb00a67f19" d="M276.41634,134.15906c-1.65771.18419-3.3154.36838-5.09589.55256,0,.55257-.0614,1.10514-.1228,2.14888,1.71909-1.41212,3.92936-.98235,5.34149-2.33307A.87257.87257,0,0,0,276.41634,134.15906Z"/>
        </g>
        <path class="ff2c66e0-058b-4c23-98f7-562502410780" d="M170.20068,248.479c-1.84189-.18418-3.13122-.24558-4.48193-.42978a15.19436,15.19436,0,0,1-7.06058-3.06982c-5.34148-3.92936-10.25318-8.2885-13.69138-14.05975a29.66825,29.66825,0,0,0-3.06982-3.92936c-1.47351,2.02607-2.76283,3.92936-4.11355,5.77125-5.15729,6.93778-10.376,13.75277-15.47187,20.69057a36.48247,36.48247,0,0,0-6.44662,13.13881,6.59286,6.59286,0,0,0,.98235,5.77125c4.05216,5.15729,8.84106,9.51644,15.47187,10.86716,5.46427,1.10513,10.49878.36838,14.30535-4.42054,6.87639-8.71829,13.937-17.31377,20.81336-26.032A43.62513,43.62513,0,0,0,170.20068,248.479Z"/>
        <path class="a1269353-01e0-4cc1-b559-71fb6a554f3f" d="M239.70134,99.71571c-22.90083-4.9731-44.57375-13.13881-65.63268-23.57619-.307,1.28933-.67537,2.70144-.921,4.175-1.53491,10.683,1.65771,19.89241,8.59549,28.05812,3.3154,3.868,7.36756,6.87639,11.29692,10.1304a10.82176,10.82176,0,0,0,3.62238,1.65769,34.32382,34.32382,0,0,0,17.06817,1.47351,32.49124,32.49124,0,0,0,15.77887-8.2885c3.92936-3.561,7.55174-7.429,9.70061-12.40206A8.45448,8.45448,0,0,0,239.70134,99.71571Z"/>
        <path class="a0c2093e-9b7f-4994-a530-39d8b2188946" d="M176.58591,68.21939c22.90083-.55256,45.06491,1.59631,66.308,11.29692-.614-2.64-1.04374-5.21869-1.84189-7.73594a49.5388,49.5388,0,0,0-11.84948-19.09426,15.96337,15.96337,0,0,0-4.23635-2.45585,39.67679,39.67679,0,0,0-25.23389-2.76284,14.84856,14.84856,0,0,0-4.23635,1.6577c-5.0345,2.88563-10.00759,5.83265-13.81417,10.31458A46.1392,46.1392,0,0,0,176.58591,68.21939Z"/>
        <path class="fab1f4eb-5162-4073-bbe8-71d01b00072b" d="M225.76436,93.08491c.24558-2.76284.36838-5.40288.85954-7.98153.49117-2.51725,1.41211-4.9731,2.21028-7.73594-1.65771-.42977-3.62238-1.04373-5.58707-1.53491-11.48113-2.57864-23.02363-4.54332-34.81173-4.8503-3.68378-.12279-7.429-.307-11.11274-.614-1.22793-.0614-1.65771.36839-1.96469,1.47351-.614,2.21027-.67537,2.27166,1.35072,3.13122,5.83266,2.39445,11.60391,4.85031,17.498,7.06058,10.25319,3.74518,20.56777,7.30616,30.88235,10.92855C225.2732,93.02352,225.51878,93.02352,225.76436,93.08491Z"/>
        <path class="a5cfdca4-0320-4d0f-ba65-5d369bfaaacb" d="M211.95018,125.80916c2.14888,0,4.29775.18419,6.44662,0,11.97228-1.04374,20.75195-7.24477,27.01439-17.25238a38.01147,38.01147,0,0,0,6.07823-20.62917,35.93258,35.93258,0,0,0-10.376-25.54088,23.53218,23.53218,0,0,0-1.71909-1.78049,34.197,34.197,0,0,0-3.13121-2.70144c8.84107,12.52484,12.70905,26.09344,7.122,40.88995C237.98225,113.28431,227.29927,122.18678,211.95018,125.80916Z"/>
        <path class="b25860c0-2cb9-4c97-99d5-40e219a23e89" d="M230.3077,77.67443a38.72391,38.72391,0,0,0-1.22792,5.15729c-.36838,3.3154-.614,6.56941-.79815,9.88481a1.68349,1.68349,0,0,0,.921,1.28933c2.76283.73676,5.58707,1.41212,8.71828,2.14887a53.54268,53.54268,0,0,0,1.47351-6.201c.307-2.45585.307-4.97311.36838-7.49035,0-.36838-.24558-1.04374-.55256-1.16653C236.32454,80.13029,233.4389,78.96375,230.3077,77.67443Zm-.614,8.96386c.49116-1.28932.98235-2.947,1.71909-4.54332.36838-.85955,1.16653-.85955,1.90329-.24558,2.51725,2.02608,3.3768,7.67454,1.41211,10.25318a3.09148,3.09148,0,0,1-2.333,1.16653c-.67537-.0614-1.53491-1.04374-1.78049-1.78049A34.31953,34.31953,0,0,1,229.69374,86.63829Z"/>
        <path class="fab1f4eb-5162-4073-bbe8-71d01b00072b" d="M241.72741,82.64753a37.164,37.164,0,0,1-1.78049,14.24395c.1228.12279.307.18419.42978.307.307-.307.79814-.614.92094-.98235a19.76428,19.76428,0,0,0,1.22793-4.11355c.36838-2.51725.49116-5.0345.73676-7.61314C243.32372,83.50708,242.894,82.89312,241.72741,82.64753Z"/>
      </g>
    </g>
  </g>
</svg>
